<?xml version="1.0" encoding="UTF-8" standalone="no"?>
<svg
   xmlns:dc="http://purl.org/dc/elements/1.1/"
   xmlns:cc="http://creativecommons.org/ns#"
   xmlns:rdf="http://www.w3.org/1999/02/22-rdf-syntax-ns#"
   xmlns:svg="http://www.w3.org/2000/svg"
   xmlns="http://www.w3.org/2000/svg"
   xmlns:sodipodi="http://sodipodi.sourceforge.net/DTD/sodipodi-0.dtd"
   xmlns:inkscape="http://www.inkscape.org/namespaces/inkscape"
   viewBox="0 0 866.55577 254.72059"
   version="1.1"
   id="svg5389"
   sodipodi:docname="data_sources.svg"
   width="866.55579"
   height="254.72057"
   inkscape:version="0.92.2 (5c3e80d, 2017-08-06)">
  <metadata
     id="metadata5395">
    <rdf:RDF>
      <cc:Work
         rdf:about="">
        <dc:format>image/svg+xml</dc:format>
        <dc:type
           rdf:resource="http://purl.org/dc/dcmitype/StillImage" />
        <dc:title></dc:title>
      </cc:Work>
    </rdf:RDF>
  </metadata>
  <defs
     id="defs5393" />
  <sodipodi:namedview
     pagecolor="#2d2d2d"
     bordercolor="#666666"
     borderopacity="1"
     objecttolerance="10"
     gridtolerance="10"
     guidetolerance="10"
     inkscape:pageopacity="0"
     inkscape:pageshadow="2"
     inkscape:window-width="3840"
     inkscape:window-height="2037"
     id="namedview5391"
     showgrid="false"
     fit-margin-top="0"
     fit-margin-left="0"
     fit-margin-right="0"
     fit-margin-bottom="0"
     inkscape:zoom="2.86"
     inkscape:cx="518.97889"
     inkscape:cy="66.30679"
     inkscape:window-x="0"
     inkscape:window-y="49"
     inkscape:window-maximized="1"
     inkscape:current-layer="feature_x5F_branch_x5F_workflow_x5F_1" />
  <style
     id="style5362">.st0{display:none;} .st1{display:inline;} .st2{fill:#FFFFFF;} .st3{fill:none;stroke:#9882CE;stroke-width:4;stroke-miterlimit:10;} .st4{fill:#FFFFFF;stroke:#404040;stroke-width:4;stroke-linecap:round;stroke-linejoin:round;stroke-miterlimit:10;} .st5{fill:#FFFFFF;stroke:#404040;stroke-width:4;stroke-miterlimit:10;} .st6{fill:#B3E3FF;stroke:#404040;stroke-width:4;stroke-miterlimit:10;} .st7{fill:#B18BE8;stroke:#404040;stroke-width:4;stroke-miterlimit:10;} .st8{fill:#FFFFFF;stroke:#404040;stroke-width:6;stroke-miterlimit:10;} .st9{fill:#B3E3FF;stroke:#404040;stroke-width:6;stroke-miterlimit:10;} .st10{fill:#404040;} .st11{fill:none;stroke:#404040;stroke-width:4;stroke-linecap:round;stroke-linejoin:round;stroke-miterlimit:10;} .st12{fill:#B18BE8;stroke:#404040;stroke-width:4;stroke-linecap:round;stroke-linejoin:round;stroke-miterlimit:10;} .st13{fill:#444444;} .st14{fill:none;stroke:#404040;stroke-width:4;stroke-miterlimit:10;} .st15{fill:#4ED1A1;stroke:#404040;stroke-width:4;stroke-miterlimit:10;} .st16{fill:none;stroke:#CCCCCC;stroke-width:7;stroke-linecap:round;stroke-linejoin:round;stroke-miterlimit:10;} .st17{fill:#FFFFFF;stroke:#CCCCCC;stroke-width:7;stroke-linecap:round;stroke-linejoin:round;stroke-miterlimit:10;} .st18{fill:none;stroke:#404040;stroke-width:7;stroke-miterlimit:10;} .st19{fill:#B3E3FF;stroke:#404040;stroke-width:7;stroke-miterlimit:10;} .st20{fill:none;stroke:#CCCCCC;stroke-width:8;stroke-linecap:round;stroke-miterlimit:10;} .st21{fill:none;stroke:#404040;stroke-width:8;stroke-linecap:round;stroke-miterlimit:10;} .st22{fill:#FFFFFF;stroke:#404040;stroke-width:4;stroke-linejoin:round;stroke-miterlimit:10;} .st23{fill:#B3E3FF;stroke:#404040;stroke-width:4;stroke-linejoin:round;stroke-miterlimit:10;} .st24{fill:none;stroke:#CCCCCC;stroke-linecap:round;stroke-linejoin:round;stroke-miterlimit:10;} .st25{fill:#999999;} .st26{fill:#4ED1A1;stroke:#404040;stroke-width:4;stroke-linecap:round;stroke-linejoin:round;stroke-miterlimit:10;} .st27{fill:#4CD3D6;stroke:#404040;stroke-width:4;stroke-linejoin:round;stroke-miterlimit:10;} .st28{fill:none;stroke:#59AFE1;stroke-width:4;stroke-miterlimit:10;} .st29{fill:#59AFE1;stroke:#404040;stroke-width:4;stroke-linejoin:round;stroke-miterlimit:10;} .st30{fill:none;stroke:#404040;stroke-width:8;stroke-linecap:round;stroke-linejoin:round;stroke-miterlimit:10;stroke-dasharray:0,30;} .st31{fill:#FFFFFF;stroke:#59AFE1;stroke-width:4;stroke-miterlimit:10;} .st32{fill:#FC8363;stroke:#404040;stroke-width:4;stroke-linecap:round;stroke-linejoin:round;stroke-miterlimit:10;} .st33{fill:#CCCCCC;stroke:#404040;stroke-width:4;stroke-miterlimit:10;} .st34{fill:#FFFFFF;stroke:#6693ED;stroke-width:4;stroke-miterlimit:10;} .st35{fill:none;stroke:#A97CDD;stroke-width:4;stroke-linecap:round;stroke-linejoin:round;stroke-miterlimit:10;} .st36{fill:none;stroke:#B3E3FF;stroke-width:4;stroke-linecap:round;stroke-linejoin:round;stroke-miterlimit:10;} .st37{fill:none;stroke:#4ED1A1;stroke-width:4;stroke-linecap:round;stroke-miterlimit:10;} .st38{fill:none;stroke:#4ED1A1;stroke-width:4;stroke-linecap:round;stroke-linejoin:round;stroke-miterlimit:10;} .st39{fill:#E24B88;stroke:#404040;stroke-width:4;stroke-linecap:round;stroke-linejoin:round;stroke-miterlimit:10;} .st40{fill:none;stroke:#DEEFF8;stroke-width:4;stroke-miterlimit:10;} .st41{fill:none;stroke:#CCCCCC;stroke-width:4;stroke-linecap:round;stroke-linejoin:round;} .st42{fill:none;stroke:#CCCCCC;stroke-width:4;stroke-linecap:round;stroke-linejoin:round;stroke-dasharray:0,14.3051;} .st43{fill:none;stroke:#CCCCCC;stroke-width:4;stroke-linecap:round;stroke-linejoin:round;stroke-dasharray:0,14.1689;} .st44{fill:none;stroke:#CCCCCC;stroke-width:4;stroke-linecap:round;stroke-linejoin:round;stroke-dasharray:0,13.9788;} .st45{fill:none;stroke:#CCCCCC;stroke-width:4;stroke-linecap:round;stroke-linejoin:round;stroke-dasharray:0,14.7877;} .st46{fill:none;stroke:#CCCCCC;stroke-width:4;stroke-linecap:round;stroke-linejoin:round;stroke-dasharray:0,14.9632;} .st47{fill:#B3E3FF;stroke:#404040;stroke-width:4;stroke-linecap:round;stroke-linejoin:round;stroke-miterlimit:10;} .st48{fill:none;stroke:#CCCCCC;stroke-width:4;stroke-linecap:round;stroke-linejoin:round;stroke-dasharray:0,12.543;} .st49{fill:none;stroke:#CCCCCC;stroke-width:4;stroke-linecap:round;stroke-linejoin:round;stroke-dasharray:0,13.6844;} .st50{fill:none;stroke:#CCCCCC;stroke-width:4;stroke-linecap:round;stroke-linejoin:round;stroke-dasharray:0,13.7717;} .st51{fill:none;stroke:#CCCCCC;stroke-width:4;stroke-linecap:round;stroke-linejoin:round;stroke-dasharray:0,13.6492;} .st52{fill:none;stroke:#CCCCCC;stroke-width:4;stroke-linecap:round;stroke-linejoin:round;stroke-dasharray:0,13.907;} .st53{fill:#4CD3D6;stroke:#404040;stroke-width:4;stroke-linecap:round;stroke-linejoin:round;stroke-miterlimit:10;} .st54{fill:none;stroke:#CCCCCC;stroke-width:4;stroke-linecap:round;stroke-linejoin:round;stroke-dasharray:0,14.9858;} .st55{fill:none;stroke:#CCCCCC;stroke-width:4;stroke-linecap:round;stroke-linejoin:round;stroke-dasharray:0,14.0118;} .st56{fill:none;stroke:#CCCCCC;stroke-width:4;stroke-linecap:round;stroke-linejoin:round;stroke-dasharray:0,14.1243;} .st57{fill:none;} .st58{fill:#FFFFFF;stroke:#404040;stroke-width:7;stroke-linecap:round;stroke-linejoin:round;stroke-miterlimit:10;} .st59{fill:#59AFE1;stroke:#404040;stroke-width:7;stroke-linejoin:round;stroke-miterlimit:10;} .st60{fill:#E24B88;stroke:#404040;stroke-width:7;stroke-linecap:round;stroke-linejoin:round;stroke-miterlimit:10;} .st61{fill:none;stroke:#404040;stroke-width:7;stroke-linecap:round;stroke-linejoin:round;stroke-miterlimit:10;} .st62{fill:none;stroke:#CCCCCC;stroke-width:4;stroke-linecap:round;stroke-linejoin:round;stroke-miterlimit:10;} .st63{fill:#FFFFFF;stroke:#CCCCCC;stroke-width:4;stroke-linecap:round;stroke-linejoin:round;stroke-miterlimit:10;} .st64{fill:#F5F5F5;} .st65{fill:#3873AE;} .st66{fill:#75706C;} .st67{fill:none;stroke:#B3E3FF;stroke-width:4;stroke-miterlimit:10;} .st68{fill:#6F6F6F;} .st69{fill:none;stroke:#6F6F6F;stroke-width:2;stroke-miterlimit:10;} .st70{fill:none;stroke:#6F6F6F;stroke-width:3;stroke-miterlimit:10;}</style>
  <g
     id="feature_x5F_branch_x5F_workflow_x5F_1"
     transform="translate(151.61088,113.36713)">
    <path
       class="st14"
       d="m 313.11573,40.32657 c 0,32.286441 -26.17852,58.572747 -58.33256,58.572747 M 313.11573,40.32657 c 0,-32.2864415 26.17851,-58.572748 58.33256,-58.572748 h 91.40591"
       id="path5364"
       inkscape:connector-curvature="0"
       style="fill:none;stroke:#8b8b8b;stroke-width:4;stroke-miterlimit:10;stroke-opacity:1"
       sodipodi:nodetypes="cccsc" />
    <ellipse
       class="st7"
       cx="433.19543"
       cy="-18.246178"
       id="circle5366"
       style="fill:#b18be8;stroke:#8b8b8b;stroke-width:4;stroke-miterlimit:10;stroke-opacity:1"
       rx="29.877653"
       ry="30.000675" />
    <path
       class="st6"
       d="M 149.57489,98.899317 H 460.89405"
       id="path5376"
       inkscape:connector-curvature="0"
       style="fill:#b3e3ff;stroke:#8b8b8b;stroke-width:3.99999976;stroke-miterlimit:10;stroke-opacity:1" />
    <ellipse
       class="st6"
       cx="179.37766"
       cy="98.899323"
       id="circle5380"
       style="fill:#b3e3ff;stroke:#8b8b8b;stroke-width:4;stroke-miterlimit:10;stroke-opacity:1"
       rx="29.877653"
       ry="30.000675" />
    <ellipse
       class="st6"
       cx="431.77267"
       cy="98.899323"
       id="circle5382"
       style="fill:#b3e3ff;stroke:#8b8b8b;stroke-width:4;stroke-miterlimit:10;stroke-opacity:1"
       rx="29.877653"
       ry="30.000675" />
    <g
       aria-label="Data Sources"
       style="font-style:normal;font-variant:normal;font-weight:normal;font-stretch:normal;font-size:32px;line-height:1.25;font-family:Comfortaa;-inkscape-font-specification:Comfortaa;text-align:end;letter-spacing:0px;word-spacing:0px;text-anchor:end;fill:#ffffff;fill-opacity:1"
       id="text5942">
      <path
         d="m -142.23587,-79.617134 q 6.21094,0 10.59375,-4.382813 4.40625,-4.40625 4.40625,-10.617187 0,-6.210936 -4.40625,-10.593746 -4.38281,-4.40625 -10.59375,-4.40625 h -5.625 v 29.999996 z m 0,-33.749996 q 7.75781,0 13.24219,5.50781 5.50781,5.48437 5.50781,13.242186 0,7.757812 -5.50781,13.265625 -5.48438,5.484375 -13.24219,5.484375 h -7.5 q -0.77344,0 -1.33594,-0.539063 -0.53906,-0.5625 -0.53906,-1.335937 v -33.749996 q 0,-0.77344 0.53906,-1.3125 0.5625,-0.5625 1.33594,-0.5625 z"
         style="font-size:48px"
         id="path6131" />
      <path
         d="m -106.61087,-98.367134 q -3.89063,0 -6.63281,2.742187 -2.74219,2.742188 -2.74219,6.632813 0,3.890625 2.74219,6.632812 2.74218,2.742188 6.63281,2.742188 3.89062,0 6.632812,-2.742188 2.742188,-2.742187 2.742188,-6.632812 0,-3.890625 -2.742188,-6.632813 -2.742192,-2.742187 -6.632812,-2.742187 z m 9.375,18.5625 q -3.9375,3.9375 -9.375,3.9375 -5.4375,0 -9.28125,-3.84375 -3.84375,-3.84375 -3.84375,-9.28125 0,-5.4375 3.84375,-9.28125 3.84375,-3.843746 9.28125,-3.843746 5.4375,0 9.28125,3.843746 3.84375,3.84375 3.84375,9.28125 v 11.25 q 0,0.773437 -0.5625,1.335937 -0.539063,0.539063 -1.3125,0.539063 -0.773438,0 -1.335938,-0.539063 -0.539062,-0.5625 -0.539062,-1.335937 z"
         style="font-size:48px"
         id="path6133" />
      <path
         d="m -78.67337,-79.617134 q 0.773437,0 1.3125,0.5625 0.5625,0.539062 0.5625,1.3125 0,0.773437 -0.5625,1.335937 -0.539063,0.539063 -1.3125,0.539063 -9.375,0 -9.375,-9.375 v -13.125 h -1.875 q -0.773438,0 -1.335938,-0.539063 -0.539062,-0.5625 -0.539062,-1.335933 0,-0.77344 0.539062,-1.3125 0.5625,-0.5625 1.335938,-0.5625 h 1.875 v -9.375 q 0,-0.77344 0.539062,-1.3125 0.5625,-0.5625 1.335938,-0.5625 0.773437,0 1.3125,0.5625 0.5625,0.53906 0.5625,1.3125 v 9.375 h 3.773437 q 0.773438,0 1.3125,0.5625 0.5625,0.53906 0.5625,1.3125 0,0.773433 -0.5625,1.335933 -0.539062,0.539063 -1.3125,0.539063 h -3.773437 v 13.125 q 0,5.625 5.625,5.625 z"
         style="font-size:48px"
         id="path6135" />
      <path
         d="m -61.32962,-98.367134 q -3.890625,0 -6.632813,2.742187 -2.742187,2.742188 -2.742187,6.632813 0,3.890625 2.742187,6.632812 2.742188,2.742188 6.632813,2.742188 3.890625,0 6.632812,-2.742188 2.742188,-2.742187 2.742188,-6.632812 0,-3.890625 -2.742188,-6.632813 -2.742187,-2.742187 -6.632812,-2.742187 z m 9.375,18.5625 q -3.9375,3.9375 -9.375,3.9375 -5.4375,0 -9.28125,-3.84375 -3.84375,-3.84375 -3.84375,-9.28125 0,-5.4375 3.84375,-9.28125 3.84375,-3.843746 9.28125,-3.843746 5.4375,0 9.28125,3.843746 3.84375,3.84375 3.84375,9.28125 v 11.25 q 0,0.773437 -0.5625,1.335937 -0.539063,0.539063 -1.3125,0.539063 -0.773438,0 -1.335938,-0.539063 -0.539062,-0.5625 -0.539062,-1.335937 z"
         style="font-size:48px"
         id="path6137" />
      <path
         d="m -30.01712,-80.999947 q -0.375,-0.492187 -0.375,-1.125 0,-0.773437 0.539062,-1.3125 0.5625,-0.5625 1.335938,-0.5625 1.007812,0 1.59375,0.867188 0.28125,0.445312 0.65625,0.84375 1.992187,2.390625 5.109375,2.648437 3.09375,0.234375 5.460937,-1.757812 2.367188,-2.015625 2.625,-5.109375 0.257813,-3.117188 -1.757812,-5.460938 -1.992188,-2.367187 -5.109375,-2.625 -3.867188,-0.328125 -6.375,-3.28125 -2.507813,-2.953123 -2.203125,-6.843753 0.328125,-3.86718 3.28125,-6.375 2.648437,-2.27343 6.09375,-2.27343 4.078125,0 7.125,3.35156 0.515625,0.60937 0.914062,1.26562 0.28125,0.44532 0.28125,1.00782 0,0.77343 -0.5625,1.33593 -0.539062,0.53907 -1.3125,0.53907 -0.890625,0 -1.3125,-0.5625 -0.421875,-0.5625 -0.867187,-1.14844 -1.523438,-1.78125 -3.820313,-1.96875 -2.320312,-0.1875 -4.101562,1.33594 -1.78125,1.5 -1.96875,3.79687 -0.1875,2.32031 1.3125,4.10156 1.523437,1.781253 3.820312,1.968753 4.664063,0.398438 7.6875,3.9375 2.6484376,3.140625 2.6484376,7.125 0,0.539063 -0.046875,1.078125 -0.375,4.640625 -3.9140626,7.640625 -3.164062,2.695313 -7.195312,2.695313 -5.039063,0 -8.671875,-3.984375 -0.492188,-0.539063 -0.890625,-1.148438 z"
         style="font-size:48px"
         id="path6139" />
      <path
         d="m 20.70163,-88.992134 q 0,5.4375 -3.84375,9.28125 -3.84375,3.84375 -9.2812504,3.84375 -5.4375,0 -9.28125,-3.84375 -3.84375,-3.84375 -3.84375,-9.28125 0,-5.4375 3.84375,-9.28125 3.84375,-3.843746 9.28125,-3.843746 5.4375004,0 9.2812504,3.843746 3.84375,3.84375 3.84375,9.28125 z m -13.1250004,-9.375 q -3.890625,0 -6.63281246,2.742187 -2.74218754,2.742188 -2.74218754,6.632813 0,3.890625 2.74218754,6.632812 2.74218746,2.742188 6.63281246,2.742188 3.8906254,0 6.6328124,-2.742188 2.742188,-2.742187 2.742188,-6.632812 0,-3.890625 -2.742188,-6.632813 -2.742187,-2.742187 -6.6328124,-2.742187 z"
         style="font-size:48px"
         id="path6141" />
      <path
         d="m 48.82663,-77.742134 q 0,0.773437 -0.5625,1.335937 -0.539063,0.539063 -1.3125,0.539063 -0.773438,0 -1.335938,-0.539063 -0.539062,-0.5625 -0.539062,-1.335937 v -1.523438 q -3.515625,3.398438 -8.4375,3.398438 -5.039063,0 -8.625,-3.5625 -3.5625,-3.585938 -3.5625,-8.625 v -12.187496 q 0,-0.77344 0.539062,-1.3125 0.5625,-0.5625 1.335938,-0.5625 0.773437,0 1.3125,0.5625 0.5625,0.53906 0.5625,1.3125 v 12.187496 q 0,3.492187 2.460937,5.976562 2.484375,2.460938 5.976563,2.460938 3.492187,0 5.953125,-2.460938 2.484375,-2.484375 2.484375,-5.976562 v -12.187496 q 0,-0.77344 0.539062,-1.3125 0.5625,-0.5625 1.335938,-0.5625 0.773437,0 1.3125,0.5625 0.5625,0.53906 0.5625,1.3125 z"
         style="font-size:48px"
         id="path6143" />
      <path
         d="m 52.57663,-100.24213 q 0,-0.77344 0.539062,-1.3125 0.5625,-0.5625 1.335938,-0.5625 0.773437,0 1.3125,0.5625 0.5625,0.53906 0.5625,1.3125 v 2.062496 q 3.9375,-3.937496 9.375,-3.937496 2.742187,0 5.039062,0.9375 0.421875,0.16406 0.773438,0.49218 0.539062,0.5625 0.539062,1.335941 0,0.773437 -0.5625,1.335937 -0.539062,0.539063 -1.3125,0.539063 -0.445312,0 -0.820312,-0.1875 -1.664063,-0.703125 -3.65625,-0.703125 -3.890625,0 -6.632813,2.742187 -2.742187,2.742188 -2.742187,6.632813 v 11.25 q 0,0.773437 -0.5625,1.335937 -0.539063,0.539063 -1.3125,0.539063 -0.773438,0 -1.335938,-0.539063 -0.539062,-0.5625 -0.539062,-1.335937 z"
         style="font-size:48px"
         id="path6145" />
      <path
         d="m 95.467255,-82.289009 q 0.773437,0 1.3125,0.5625 0.5625,0.539062 0.5625,1.3125 0,0.773437 -0.585938,1.382812 -3.632812,3.164063 -8.554687,3.164063 -5.4375,0 -9.28125,-3.84375 -3.84375,-3.84375 -3.84375,-9.28125 0,-5.4375 3.84375,-9.28125 3.84375,-3.843746 9.28125,-3.843746 4.921875,0 8.554687,3.164058 0.65625,0.585938 0.65625,1.453125 0,0.773438 -0.5625,1.335938 -0.539062,0.539062 -1.3125,0.539062 -0.679687,0 -1.195312,-0.421875 -2.625,-2.320312 -6.140625,-2.320312 -3.890625,0 -6.632813,2.742187 -2.742187,2.742188 -2.742187,6.632813 0,3.890625 2.742187,6.632812 2.742188,2.742188 6.632813,2.742188 3.515625,0 6.117187,-2.296875 0.492188,-0.375 1.148438,-0.375 z"
         style="font-size:48px"
         id="path6147" />
      <path
         d="m 123.66257,-90.867134 q -0.51563,-2.695313 -2.57813,-4.757813 -2.74219,-2.742187 -6.63281,-2.742187 -3.89063,0 -6.63281,2.742187 -2.0625,2.0625 -2.57813,4.757813 z m -1.99219,8.625 q 0.77344,0 1.3125,0.5625 0.5625,0.539062 0.5625,1.3125 0,0.773437 -0.53906,1.335937 -3.63282,3.164063 -8.55469,3.164063 -5.4375,0 -9.28125,-3.84375 -3.84375,-3.84375 -3.84375,-9.28125 0,-5.4375 3.84375,-9.28125 3.84375,-3.843746 9.28125,-3.843746 5.4375,0 9.28125,3.843746 3.84375,3.84375 3.84375,9.28125 0,0.773437 -0.5625,1.335937 -0.53906,0.539063 -1.3125,0.539063 h -20.46094 q 0.51563,2.695312 2.57813,4.757812 2.74218,2.742188 6.63281,2.742188 3.51562,0 6.04687,-2.226563 0.51563,-0.398437 1.17188,-0.398437 z"
         style="font-size:48px"
         id="path6149" />
      <path
         d="m 135.96725,-88.992134 q -2.13281,-0.796875 -2.97656,-1.664063 -1.66406,-1.640625 -1.66406,-3.960937 0,-2.320313 1.73437,-4.054688 3.375,-3.445308 8.8125,-3.445308 5.88282,0 10.07813,4.710933 0.375,0.445313 0.35156,1.101563 0,0.773437 -0.5625,1.335937 -0.53906,0.539063 -1.3125,0.539063 -0.77344,0 -1.24219,-0.492188 -0.46875,-0.492187 -0.67968,-0.703125 -2.74219,-2.742187 -6.63282,-2.742187 -3.89062,0 -6.21093,2.4375 -0.5625,0.679687 -0.5625,1.617187 0.0703,1.101563 1.14843,1.5 l 11.53125,3.820313 q 2.13282,0.796875 2.97657,1.664062 1.66406,1.640625 1.66406,3.960938 0,2.320312 -1.73438,4.054687 -3.375,3.445313 -8.8125,3.445313 -5.90625,0 -10.07812,-4.710938 -0.35156,-0.492187 -0.35156,-1.101562 0,-0.773438 0.53906,-1.3125 0.5625,-0.5625 1.33594,-0.5625 0.77343,0 1.24218,0.492187 0.46875,0.492188 0.67969,0.703125 2.74219,2.742188 6.63281,2.742188 3.89063,0 6.21094,-2.4375 0.5625,-0.679688 0.5625,-1.617188 -0.0703,-1.101562 -1.14844,-1.5 z"
         style="font-size:48px"
         id="path6151" />
    </g>
    <g
       aria-label="Scientific citation
indexing services"
       style="font-style:normal;font-variant:normal;font-weight:normal;font-stretch:normal;font-size:32px;line-height:1.25;font-family:Comfortaa;-inkscape-font-specification:Comfortaa;letter-spacing:0px;word-spacing:0px;fill:#ffffff;fill-opacity:1"
       id="text5948">
      <path
         d="m -151.34004,86.188072 q -0.27084,-0.355469 -0.27084,-0.8125 0,-0.558594 0.38933,-0.947917 0.40625,-0.40625 0.96484,-0.40625 0.72787,0 1.15104,0.626302 0.20313,0.321615 0.47396,0.609375 1.4388,1.726563 3.69011,1.912761 2.23437,0.169271 3.94401,-1.269531 1.70963,-1.45573 1.89583,-3.690105 0.1862,-2.251302 -1.26953,-3.94401 -1.4388,-1.709636 -3.69011,-1.895834 -2.79296,-0.236979 -4.60416,-2.369791 -1.8112,-2.132813 -1.59115,-4.942709 0.23698,-2.792969 2.36979,-4.604167 1.91276,-1.641927 4.40104,-1.641927 2.94532,0 5.14584,2.420573 0.37239,0.440104 0.66015,0.914063 0.20313,0.321614 0.20313,0.727864 0,0.558594 -0.40625,0.964844 -0.38932,0.389323 -0.94792,0.389323 -0.64323,0 -0.94791,-0.40625 -0.30469,-0.40625 -0.62631,-0.829427 -1.10026,-1.286459 -2.75911,-1.421875 -1.67578,-0.135417 -2.96224,0.964844 -1.28646,1.083333 -1.42188,2.742187 -0.13541,1.675782 0.94792,2.96224 1.10026,1.286458 2.75912,1.421875 3.36849,0.28776 5.55208,2.84375 1.91276,2.268229 1.91276,5.145834 0,0.389322 -0.0339,0.778645 -0.27084,3.351563 -2.82683,5.51823 -2.28515,1.946614 -5.19661,1.946614 -3.63932,0 -6.26302,-2.877604 -0.35547,-0.389323 -0.64323,-0.829427 z"
         style="font-size:34.66666794px"
         id="path6062" />
      <path
         d="m -118.9416,85.257082 q 0.55859,0 0.94791,0.40625 0.40625,0.389323 0.40625,0.947917 0,0.558594 -0.42317,0.998698 -2.6237,2.285156 -6.17839,2.285156 -3.92708,0 -6.70312,-2.776041 -2.77605,-2.776042 -2.77605,-6.703126 0,-3.927083 2.77605,-6.703125 2.77604,-2.776042 6.70312,-2.776042 3.55469,0 6.17839,2.285157 0.47395,0.423177 0.47395,1.049479 0,0.558594 -0.40625,0.964844 -0.38932,0.389323 -0.94791,0.389323 -0.49089,0 -0.86328,-0.304688 -1.89584,-1.675781 -4.4349,-1.675781 -2.8099,0 -4.79036,1.980469 -1.98047,1.980469 -1.98047,4.790364 0,2.809896 1.98047,4.790365 1.98046,1.980469 4.79036,1.980469 2.53906,0 4.41797,-1.658854 0.35547,-0.270834 0.82943,-0.270834 z"
         style="font-size:34.66666794px"
         id="path6064" />
      <path
         d="m -110.30879,66.874269 q 0,0.694011 -0.50781,1.201823 -0.49089,0.490886 -1.1849,0.490886 -0.69401,0 -1.20182,-0.490886 -0.49089,-0.507812 -0.49089,-1.201823 0,-0.69401 0.49089,-1.184896 0.50781,-0.507812 1.20182,-0.507812 0.69401,0 1.1849,0.507812 0.50781,0.490886 0.50781,1.184896 z m -3.04688,5.416667 q 0,-0.558594 0.38933,-0.947917 0.40625,-0.40625 0.96484,-0.40625 0.55859,0 0.94792,0.40625 0.40625,0.389323 0.40625,0.947917 v 16.250001 q 0,0.558594 -0.40625,0.964844 -0.38933,0.389322 -0.94792,0.389322 -0.55859,0 -0.96484,-0.389322 -0.38933,-0.40625 -0.38933,-0.964844 z"
         style="font-size:34.66666794px"
         id="path6066" />
      <path
         d="m -90.453321,79.06177 q -0.372396,-1.946615 -1.86198,-3.436198 -1.980469,-1.980469 -4.790364,-1.980469 -2.809896,0 -4.790365,1.980469 -1.48958,1.489583 -1.86198,3.436198 z m -1.438803,6.229167 q 0.558594,0 0.947917,0.40625 0.40625,0.389323 0.40625,0.947916 0,0.558594 -0.389323,0.964844 -2.623698,2.285156 -6.178385,2.285156 -3.927085,0 -6.703125,-2.776041 -2.77604,-2.776042 -2.77604,-6.703126 0,-3.927083 2.77604,-6.703125 2.77604,-2.776042 6.703125,-2.776042 3.927083,0 6.703125,2.776042 2.776042,2.776042 2.776042,6.703125 0,0.558594 -0.40625,0.964844 -0.389323,0.389323 -0.947917,0.389323 h -14.777345 q 0.3724,1.946615 1.86198,3.436198 1.980469,1.980469 4.790365,1.980469 2.539062,0 4.367187,-1.608073 0.372396,-0.28776 0.846354,-0.28776 z"
         style="font-size:34.66666794px"
         id="path6068" />
      <path
         d="m -84.918165,72.290936 q 0,-0.558594 0.389323,-0.947917 0.40625,-0.40625 0.964844,-0.40625 0.558594,0 0.947917,0.40625 0.40625,0.389323 0.40625,0.947917 v 1.100261 q 2.539063,-2.454428 6.09375,-2.454428 3.639323,0 6.21224,2.589844 2.589844,2.572917 2.589844,6.21224 v 8.802084 q 0,0.558594 -0.40625,0.964844 -0.389323,0.389322 -0.947917,0.389322 -0.558594,0 -0.964844,-0.389322 -0.389323,-0.40625 -0.389323,-0.964844 v -8.802084 q 0,-2.522135 -1.794271,-4.299479 -1.777343,-1.794271 -4.299479,-1.794271 -2.522135,0 -4.316406,1.794271 -1.777344,1.777344 -1.777344,4.299479 v 8.802084 q 0,0.558594 -0.40625,0.964844 -0.389323,0.389322 -0.947917,0.389322 -0.558594,0 -0.964844,-0.389322 -0.389323,-0.40625 -0.389323,-0.964844 z"
         style="font-size:34.66666794px"
         id="path6070" />
      <path
         d="m -56.345248,87.18677 q 0.558594,0 0.947917,0.40625 0.40625,0.389323 0.40625,0.947917 0,0.558594 -0.40625,0.964844 -0.389323,0.389322 -0.947917,0.389322 -6.770833,0 -6.770833,-6.770833 v -9.479167 h -1.354167 q -0.558594,0 -0.964844,-0.389323 -0.389323,-0.40625 -0.389323,-0.964844 0,-0.558594 0.389323,-0.947917 0.40625,-0.40625 0.964844,-0.40625 h 1.354167 v -6.770833 q 0,-0.558594 0.389323,-0.947917 0.40625,-0.40625 0.964844,-0.40625 0.558593,0 0.947916,0.40625 0.40625,0.389323 0.40625,0.947917 v 6.770833 h 2.725261 q 0.558594,0 0.947917,0.40625 0.40625,0.389323 0.40625,0.947917 0,0.558594 -0.40625,0.964844 -0.389323,0.389323 -0.947917,0.389323 h -2.725261 v 9.479167 q 0,4.0625 4.0625,4.0625 z"
         style="font-size:34.66666794px"
         id="path6072" />
      <path
         d="m -47.881709,66.874269 q 0,0.694011 -0.507812,1.201823 -0.490886,0.490886 -1.184896,0.490886 -0.69401,0 -1.201823,-0.490886 -0.490885,-0.507812 -0.490885,-1.201823 0,-0.69401 0.490885,-1.184896 0.507813,-0.507812 1.201823,-0.507812 0.69401,0 1.184896,0.507812 0.507812,0.490886 0.507812,1.184896 z m -3.046875,5.416667 q 0,-0.558594 0.389323,-0.947917 0.40625,-0.40625 0.964844,-0.40625 0.558594,0 0.947917,0.40625 0.40625,0.389323 0.40625,0.947917 v 16.250001 q 0,0.558594 -0.40625,0.964844 -0.389323,0.389322 -0.947917,0.389322 -0.558594,0 -0.964844,-0.389322 -0.389323,-0.40625 -0.389323,-0.964844 z"
         style="font-size:34.66666794px"
         id="path6074" />
      <path
         d="m -33.324417,62.811769 q 0.558594,0 0.947917,0.40625 0.40625,0.389323 0.40625,0.947917 0,0.558594 -0.40625,0.964844 -0.389323,0.389323 -0.947917,0.389323 -5.416667,0 -5.416667,5.416666 v 1.015625 h 4.079428 q 0.558593,0 0.947916,0.40625 0.40625,0.389323 0.40625,0.947917 0,0.558594 -0.40625,0.964844 -0.389323,0.389323 -0.947916,0.389323 h -4.079428 v 13.880209 q 0,0.558594 -0.40625,0.964844 -0.389322,0.389322 -0.947916,0.389322 -0.558594,0 -0.964844,-0.389322 -0.389323,-0.40625 -0.389323,-0.964844 V 74.660728 h -1.354167 q -0.558593,0 -0.964843,-0.389323 -0.389323,-0.40625 -0.389323,-0.964844 0,-0.558594 0.389323,-0.947917 0.40625,-0.40625 0.964843,-0.40625 h 1.354167 v -1.015625 q 0,-8.125 8.125,-8.125 z"
         style="font-size:34.66666794px"
         id="path6076" />
      <path
         d="m -26.215037,66.874269 q 0,0.694011 -0.507812,1.201823 -0.490886,0.490886 -1.184896,0.490886 -0.694011,0 -1.201823,-0.490886 -0.490886,-0.507812 -0.490886,-1.201823 0,-0.69401 0.490886,-1.184896 0.507812,-0.507812 1.201823,-0.507812 0.69401,0 1.184896,0.507812 0.507812,0.490886 0.507812,1.184896 z m -3.046875,5.416667 q 0,-0.558594 0.389323,-0.947917 0.40625,-0.40625 0.964844,-0.40625 0.558594,0 0.947916,0.40625 0.406251,0.389323 0.406251,0.947917 v 16.250001 q 0,0.558594 -0.406251,0.964844 -0.389322,0.389322 -0.947916,0.389322 -0.558594,0 -0.964844,-0.389322 -0.389323,-0.40625 -0.389323,-0.964844 z"
         style="font-size:34.66666794px"
         id="path6078" />
      <path
         d="m -7.7645156,85.257082 q 0.5585938,0 0.9479167,0.40625 0.40625,0.389323 0.40625,0.947917 0,0.558594 -0.4231771,0.998698 -2.623698,2.285156 -6.178386,2.285156 -3.927083,0 -6.703125,-2.776041 -2.776042,-2.776042 -2.776042,-6.703126 0,-3.927083 2.776042,-6.703125 2.776042,-2.776042 6.703125,-2.776042 3.554688,0 6.178386,2.285157 0.4739584,0.423177 0.4739584,1.049479 0,0.558594 -0.4062501,0.964844 -0.3893229,0.389323 -0.9479167,0.389323 -0.4908854,0 -0.8632812,-0.304688 -1.8958334,-1.675781 -4.4348964,-1.675781 -2.809896,0 -4.790364,1.980469 -1.980469,1.980469 -1.980469,4.790364 0,2.809896 1.980469,4.790365 1.980468,1.980469 4.790364,1.980469 2.539063,0 4.4179693,-1.658854 0.3554687,-0.270834 0.8294271,-0.270834 z"
         style="font-size:34.66666794px"
         id="path6080" />
      <path
         d="m 21.350063,85.257082 q 0.558593,0 0.947916,0.40625 0.40625,0.389323 0.40625,0.947917 0,0.558594 -0.423177,0.998698 -2.623698,2.285156 -6.178385,2.285156 -3.927084,0 -6.7031256,-2.776041 -2.7760418,-2.776042 -2.7760418,-6.703126 0,-3.927083 2.7760418,-6.703125 2.7760416,-2.776042 6.7031256,-2.776042 3.554687,0 6.178385,2.285157 0.473959,0.423177 0.473959,1.049479 0,0.558594 -0.40625,0.964844 -0.389323,0.389323 -0.947917,0.389323 -0.490886,0 -0.863281,-0.304688 -1.895834,-1.675781 -4.434896,-1.675781 -2.809896,0 -4.790365,1.980469 -1.980469,1.980469 -1.980469,4.790364 0,2.809896 1.980469,4.790365 1.980469,1.980469 4.790365,1.980469 2.539062,0 4.417969,-1.658854 0.355468,-0.270834 0.829427,-0.270834 z"
         style="font-size:34.66666794px"
         id="path6082" />
      <path
         d="m 29.982885,66.874269 q 0,0.694011 -0.507813,1.201823 -0.490885,0.490886 -1.184895,0.490886 -0.694011,0 -1.201823,-0.490886 -0.490886,-0.507812 -0.490886,-1.201823 0,-0.69401 0.490886,-1.184896 0.507812,-0.507812 1.201823,-0.507812 0.69401,0 1.184895,0.507812 0.507813,0.490886 0.507813,1.184896 z m -3.046875,5.416667 q 0,-0.558594 0.389323,-0.947917 0.40625,-0.40625 0.964844,-0.40625 0.558593,0 0.947916,0.40625 0.40625,0.389323 0.40625,0.947917 v 16.250001 q 0,0.558594 -0.40625,0.964844 -0.389323,0.389322 -0.947916,0.389322 -0.558594,0 -0.964844,-0.389322 -0.389323,-0.40625 -0.389323,-0.964844 z"
         style="font-size:34.66666794px"
         id="path6084" />
      <path
         d="m 43.18601,87.18677 q 0.558594,0 0.947917,0.40625 0.40625,0.389323 0.40625,0.947917 0,0.558594 -0.40625,0.964844 -0.389323,0.389322 -0.947917,0.389322 -6.770833,0 -6.770833,-6.770833 V 73.645103 H 35.06101 q -0.558594,0 -0.964844,-0.389323 -0.389323,-0.40625 -0.389323,-0.964844 0,-0.558594 0.389323,-0.947917 0.40625,-0.40625 0.964844,-0.40625 h 1.354167 v -6.770833 q 0,-0.558594 0.389322,-0.947917 0.40625,-0.40625 0.964844,-0.40625 0.558594,0 0.947917,0.40625 0.40625,0.389323 0.40625,0.947917 v 6.770833 h 2.72526 q 0.558594,0 0.947917,0.40625 0.40625,0.389323 0.40625,0.947917 0,0.558594 -0.40625,0.964844 -0.389323,0.389323 -0.947917,0.389323 h -2.72526 v 9.479167 q 0,4.0625 4.0625,4.0625 z"
         style="font-size:34.66666794px"
         id="path6086" />
      <path
         d="m 55.712042,73.645103 q -2.809896,0 -4.790365,1.980469 -1.980469,1.980469 -1.980469,4.790364 0,2.809896 1.980469,4.790365 1.980469,1.980469 4.790365,1.980469 2.809896,0 4.790364,-1.980469 1.980469,-1.980469 1.980469,-4.790365 0,-2.809895 -1.980469,-4.790364 -1.980468,-1.980469 -4.790364,-1.980469 z m 6.770833,13.40625 q -2.84375,2.84375 -6.770833,2.84375 -3.927084,0 -6.703126,-2.776041 -2.776041,-2.776042 -2.776041,-6.703126 0,-3.927083 2.776041,-6.703125 2.776042,-2.776042 6.703126,-2.776042 3.927083,0 6.703125,2.776042 2.776042,2.776042 2.776042,6.703125 v 8.125001 q 0,0.558594 -0.40625,0.964844 -0.389323,0.389322 -0.947917,0.389322 -0.558594,0 -0.964844,-0.389322 -0.389323,-0.40625 -0.389323,-0.964844 z"
         style="font-size:34.66666794px"
         id="path6088" />
      <path
         d="m 75.889135,87.18677 q 0.558594,0 0.947917,0.40625 0.40625,0.389323 0.40625,0.947917 0,0.558594 -0.40625,0.964844 -0.389323,0.389322 -0.947917,0.389322 -6.770833,0 -6.770833,-6.770833 v -9.479167 h -1.354167 q -0.558594,0 -0.964844,-0.389323 -0.389323,-0.40625 -0.389323,-0.964844 0,-0.558594 0.389323,-0.947917 0.40625,-0.40625 0.964844,-0.40625 h 1.354167 v -6.770833 q 0,-0.558594 0.389322,-0.947917 0.40625,-0.40625 0.964844,-0.40625 0.558594,0 0.947917,0.40625 0.40625,0.389323 0.40625,0.947917 v 6.770833 h 2.72526 q 0.558594,0 0.947917,0.40625 0.40625,0.389323 0.40625,0.947917 0,0.558594 -0.40625,0.964844 -0.389323,0.389323 -0.947917,0.389323 h -2.72526 v 9.479167 q 0,4.0625 4.0625,4.0625 z"
         style="font-size:34.66666794px"
         id="path6090" />
      <path
         d="m 84.352666,66.874269 q 0,0.694011 -0.507812,1.201823 -0.490886,0.490886 -1.184896,0.490886 -0.69401,0 -1.201823,-0.490886 -0.490885,-0.507812 -0.490885,-1.201823 0,-0.69401 0.490885,-1.184896 0.507813,-0.507812 1.201823,-0.507812 0.69401,0 1.184896,0.507812 0.507812,0.490886 0.507812,1.184896 z m -3.046875,5.416667 q 0,-0.558594 0.389323,-0.947917 0.40625,-0.40625 0.964844,-0.40625 0.558594,0 0.947917,0.40625 0.40625,0.389323 0.40625,0.947917 v 16.250001 q 0,0.558594 -0.40625,0.964844 -0.389323,0.389322 -0.947917,0.389322 -0.558594,0 -0.964844,-0.389322 -0.389323,-0.40625 -0.389323,-0.964844 z"
         style="font-size:34.66666794px"
         id="path6092" />
      <path
         d="m 107.03496,80.415936 q 0,3.927084 -2.77604,6.703126 -2.77604,2.776041 -6.703128,2.776041 -3.927084,0 -6.703126,-2.776041 -2.776041,-2.776042 -2.776041,-6.703126 0,-3.927083 2.776041,-6.703125 2.776042,-2.776042 6.703126,-2.776042 3.927088,0 6.703128,2.776042 2.77604,2.776042 2.77604,6.703125 z m -9.479168,-6.770833 q -2.809896,0 -4.790365,1.980469 -1.980469,1.980469 -1.980469,4.790364 0,2.809896 1.980469,4.790365 1.980469,1.980469 4.790365,1.980469 2.809898,0 4.790368,-1.980469 1.98047,-1.980469 1.98047,-4.790365 0,-2.809895 -1.98047,-4.790364 -1.98047,-1.980469 -4.790368,-1.980469 z"
         style="font-size:34.66666794px"
         id="path6094" />
      <path
         d="m 109.74331,72.290936 q 0,-0.558594 0.38932,-0.947917 0.40625,-0.40625 0.96485,-0.40625 0.55859,0 0.94792,0.40625 0.40625,0.389323 0.40625,0.947917 v 1.100261 q 2.53906,-2.454428 6.09375,-2.454428 3.63932,0 6.21224,2.589844 2.58984,2.572917 2.58984,6.21224 v 8.802084 q 0,0.558594 -0.40625,0.964844 -0.38932,0.389322 -0.94792,0.389322 -0.55859,0 -0.96484,-0.389322 -0.38932,-0.40625 -0.38932,-0.964844 v -8.802084 q 0,-2.522135 -1.79428,-4.299479 -1.77734,-1.794271 -4.29947,-1.794271 -2.52214,0 -4.31641,1.794271 -1.77734,1.777344 -1.77734,4.299479 v 8.802084 q 0,0.558594 -0.40625,0.964844 -0.38933,0.389322 -0.94792,0.389322 -0.5586,0 -0.96485,-0.389322 -0.38932,-0.40625 -0.38932,-0.964844 z"
         style="font-size:34.66666794px"
         id="path6096" />
      <path
         d="m -147.20983,110.2076 q 0,0.69401 -0.50782,1.20183 -0.49088,0.49088 -1.18489,0.49088 -0.69401,0 -1.20182,-0.49088 -0.49089,-0.50782 -0.49089,-1.20183 0,-0.69401 0.49089,-1.18489 0.50781,-0.50781 1.20182,-0.50781 0.69401,0 1.18489,0.50781 0.50782,0.49088 0.50782,1.18489 z m -3.04688,5.41667 q 0,-0.55859 0.38932,-0.94792 0.40625,-0.40625 0.96485,-0.40625 0.55859,0 0.94791,0.40625 0.40625,0.38933 0.40625,0.94792 v 16.25 q 0,0.5586 -0.40625,0.96485 -0.38932,0.38932 -0.94791,0.38932 -0.5586,0 -0.96485,-0.38932 -0.38932,-0.40625 -0.38932,-0.96485 z"
         style="font-size:34.66666794px"
         id="path6098" />
      <path
         d="m -143.48588,115.62427 q 0,-0.55859 0.38933,-0.94792 0.40625,-0.40625 0.96484,-0.40625 0.5586,0 0.94792,0.40625 0.40625,0.38933 0.40625,0.94792 v 1.10026 q 2.53906,-2.45443 6.09375,-2.45443 3.63932,0 6.21224,2.58985 2.58984,2.57291 2.58984,6.21224 v 8.80208 q 0,0.5586 -0.40625,0.96485 -0.38932,0.38932 -0.94791,0.38932 -0.5586,0 -0.96485,-0.38932 -0.38932,-0.40625 -0.38932,-0.96485 v -8.80208 q 0,-2.52214 -1.79427,-4.29948 -1.77735,-1.79427 -4.29948,-1.79427 -2.52214,0 -4.31641,1.79427 -1.77734,1.77734 -1.77734,4.29948 v 8.80208 q 0,0.5586 -0.40625,0.96485 -0.38932,0.38932 -0.94792,0.38932 -0.55859,0 -0.96484,-0.38932 -0.38933,-0.40625 -0.38933,-0.96485 z"
         style="font-size:34.66666794px"
         id="path6100" />
      <path
         d="m -106.92337,123.74927 q 0,-2.80989 -1.98047,-4.79036 -1.98047,-1.98047 -4.79037,-1.98047 -2.80989,0 -4.79036,1.98047 -1.98047,1.98047 -1.98047,4.79036 0,2.8099 1.98047,4.79037 1.98047,1.98046 4.79036,1.98046 2.8099,0 4.79037,-1.98046 1.98047,-1.98047 1.98047,-4.79037 z m 0,-16.28385 q 0,-0.5586 0.38932,-0.94792 0.40625,-0.40625 0.96484,-0.40625 0.5586,0 0.94792,0.40625 0.40625,0.38932 0.40625,0.94792 v 16.28385 q 0,3.92708 -2.77604,6.70313 -2.77604,2.77604 -6.70313,2.77604 -3.92708,0 -6.70312,-2.77604 -2.77605,-2.77605 -2.77605,-6.70313 0,-3.92708 2.77605,-6.70312 2.77604,-2.77605 6.70312,-2.77605 3.92709,0 6.70313,2.77605 0.0339,0.0339 0.0677,0.0677 z"
         style="font-size:34.66666794px"
         id="path6102" />
      <path
         d="m -85.375196,122.3951 q -0.372396,-1.94661 -1.86198,-3.43619 -1.980469,-1.98047 -4.790364,-1.98047 -2.809896,0 -4.790365,1.98047 -1.489584,1.48958 -1.861979,3.43619 z m -1.438803,6.22917 q 0.558594,0 0.947917,0.40625 0.40625,0.38932 0.40625,0.94792 0,0.55859 -0.389323,0.96484 -2.623698,2.28516 -6.178385,2.28516 -3.927084,0 -6.703126,-2.77604 -2.776044,-2.77605 -2.776044,-6.70313 0,-3.92708 2.776044,-6.70312 2.776042,-2.77605 6.703126,-2.77605 3.927083,0 6.703125,2.77605 2.776042,2.77604 2.776042,6.70312 0,0.5586 -0.40625,0.96485 -0.389323,0.38932 -0.947917,0.38932 h -14.777344 q 0.372395,1.94661 1.861979,3.4362 1.980469,1.98046 4.790365,1.98046 2.539062,0 4.367187,-1.60807 0.372396,-0.28776 0.846354,-0.28776 z"
         style="font-size:34.66666794px"
         id="path6104" />
      <path
         d="m -75.032745,123.73234 -6.042969,-7.22786 q -0.321615,-0.3724 -0.321615,-0.88021 0,-0.55859 0.389323,-0.94792 0.40625,-0.40625 0.964844,-0.40625 0.558594,0 0.998698,0.42318 l 5.772136,6.92318 5.772135,-6.92318 q 0.440104,-0.42318 0.998698,-0.42318 0.558594,0 0.947917,0.40625 0.40625,0.38933 0.40625,0.94792 0,0.50781 -0.321615,0.88021 l -6.042969,7.22786 6.093751,7.3125 q 0.270833,0.35547 0.270833,0.82943 0,0.5586 -0.40625,0.96485 -0.389323,0.38932 -0.947917,0.38932 -0.558594,0 -0.947916,-0.40625 l -5.822917,-6.97396 -5.822917,6.97396 q -0.389323,0.40625 -0.947917,0.40625 -0.558594,0 -0.964844,-0.38932 -0.389323,-0.40625 -0.389323,-0.96485 0,-0.47396 0.270834,-0.82943 z"
         style="font-size:34.66666794px"
         id="path6106" />
      <path
         d="m -58.037959,110.2076 q 0,0.69401 -0.507812,1.20183 -0.490886,0.49088 -1.184896,0.49088 -0.69401,0 -1.201823,-0.49088 -0.490885,-0.50782 -0.490885,-1.20183 0,-0.69401 0.490885,-1.18489 0.507813,-0.50781 1.201823,-0.50781 0.69401,0 1.184896,0.50781 0.507812,0.49088 0.507812,1.18489 z m -3.046875,5.41667 q 0,-0.55859 0.389323,-0.94792 0.40625,-0.40625 0.964844,-0.40625 0.558594,0 0.947917,0.40625 0.40625,0.38933 0.40625,0.94792 v 16.25 q 0,0.5586 -0.40625,0.96485 -0.389323,0.38932 -0.947917,0.38932 -0.558594,0 -0.964844,-0.38932 -0.389323,-0.40625 -0.389323,-0.96485 z"
         style="font-size:34.66666794px"
         id="path6108" />
      <path
         d="m -54.314,115.62427 q 0,-0.55859 0.389323,-0.94792 0.40625,-0.40625 0.964843,-0.40625 0.558594,0 0.947917,0.40625 0.40625,0.38933 0.40625,0.94792 v 1.10026 q 2.539063,-2.45443 6.09375,-2.45443 3.639323,0 6.21224,2.58985 2.589844,2.57291 2.589844,6.21224 v 8.80208 q 0,0.5586 -0.40625,0.96485 -0.389323,0.38932 -0.947917,0.38932 -0.558594,0 -0.964844,-0.38932 -0.389323,-0.40625 -0.389323,-0.96485 v -8.80208 q 0,-2.52214 -1.79427,-4.29948 -1.777344,-1.79427 -4.29948,-1.79427 -2.522135,0 -4.316406,1.79427 -1.777344,1.77734 -1.777344,4.29948 v 8.80208 q 0,0.5586 -0.40625,0.96485 -0.389323,0.38932 -0.947917,0.38932 -0.558593,0 -0.964843,-0.38932 -0.389323,-0.40625 -0.389323,-0.96485 z"
         style="font-size:34.66666794px"
         id="path6110" />
      <path
         d="m -24.522333,116.97844 q -2.809896,0 -4.790365,1.98047 -1.980469,1.98047 -1.980469,4.79036 0,2.8099 1.980469,4.79037 1.980469,1.98046 4.790365,1.98046 2.809896,0 4.790364,-1.98046 1.980469,-1.98047 1.980469,-4.79037 0,-2.80989 -1.980469,-4.79036 -1.980468,-1.98047 -4.790364,-1.98047 z m 6.770833,13.40625 q -0.03385,0.0339 -0.06771,0.0677 -2.776042,2.77604 -6.703125,2.77604 -3.927084,0 -6.703126,-2.77604 -2.776041,-2.77605 -2.776041,-6.70313 0,-3.92708 2.776041,-6.70312 2.776042,-2.77605 6.703126,-2.77605 3.927083,0 6.703125,2.77605 2.776042,2.77604 2.776042,6.70312 v 9.47917 q 0,2.96224 -2.132813,5.14583 -2.979167,2.97917 -7.194011,2.97917 -4.214844,0 -7.177083,-2.97917 -1.100261,-1.08333 -1.794271,-2.35286 -0.203125,-0.30469 -0.203125,-0.71094 0,-0.55859 0.389323,-0.96484 0.40625,-0.38933 0.964844,-0.38933 0.558593,0 0.964843,0.38933 0.169271,0.18619 0.287761,0.40625 0.507812,0.91406 1.303385,1.70963 2.183594,2.1836 5.264323,2.1836 3.08073,0 5.264323,-2.1836 1.354167,-1.625 1.354167,-3.23307 z"
         style="font-size:34.66666794px"
         id="path6112" />
      <path
         d="m 1.172984,123.74927 q -1.54036466,-0.57552 -2.14973968,-1.20182 -1.20182292,-1.1849 -1.20182292,-2.86068 0,-1.67578 1.25260417,-2.92838 2.43750013,-2.48829 6.36458353,-2.48829 4.2486981,0 7.2786459,3.40235 0.270834,0.32161 0.253906,0.79557 0,0.55859 -0.40625,0.96484 -0.389322,0.38933 -0.947916,0.38933 -0.558594,0 -0.897136,-0.35547 -0.338541,-0.35547 -0.490885,-0.50781 -1.9804689,-1.98047 -4.7903649,-1.98047 -2.8098959,0 -4.48567721,1.76041 -0.40625002,0.49089 -0.40625002,1.16797 0.0507813,0.79558 0.82942713,1.08334 l 8.3281253,2.75911 q 1.5403647,0.57552 2.1497397,1.20182 1.201823,1.1849 1.201823,2.86068 0,1.67578 -1.252604,2.92839 -2.4375004,2.48828 -6.3645839,2.48828 -4.2656251,0 -7.2786461,-3.40235 -0.2539062,-0.35546 -0.2539062,-0.79557 0,-0.55859 0.3893229,-0.94792 0.40625,-0.40625 0.96484379,-0.40625 0.55859377,0 0.89713545,0.35547 0.33854168,0.35547 0.49088544,0.50782 1.98046882,1.98046 4.79036472,1.98046 2.809896,0 4.4856773,-1.76041 0.4062496,-0.49089 0.4062496,-1.16797 -0.05078,-0.79557 -0.8294267,-1.08333 z"
         style="font-size:34.66666794px"
         id="path6114" />
      <path
         d="m 31.895636,122.3951 q -0.372396,-1.94661 -1.86198,-3.43619 -1.980468,-1.98047 -4.790364,-1.98047 -2.809896,0 -4.790365,1.98047 -1.489584,1.48958 -1.861979,3.43619 z m -1.438803,6.22917 q 0.558594,0 0.947917,0.40625 0.40625,0.38932 0.40625,0.94792 0,0.55859 -0.389323,0.96484 -2.623698,2.28516 -6.178385,2.28516 -3.927084,0 -6.703126,-2.77604 -2.776041,-2.77605 -2.776041,-6.70313 0,-3.92708 2.776041,-6.70312 2.776042,-2.77605 6.703126,-2.77605 3.927083,0 6.703125,2.77605 2.776042,2.77604 2.776042,6.70312 0,0.5586 -0.40625,0.96485 -0.389323,0.38932 -0.947917,0.38932 H 18.590948 q 0.372395,1.94661 1.861979,3.4362 1.980469,1.98046 4.790365,1.98046 2.539062,0 4.367187,-1.60807 0.372396,-0.28776 0.846354,-0.28776 z"
         style="font-size:34.66666794px"
         id="path6116" />
      <path
         d="m 37.430796,115.62427 q 0,-0.55859 0.389323,-0.94792 0.40625,-0.40625 0.964844,-0.40625 0.558594,0 0.947917,0.40625 0.40625,0.38933 0.40625,0.94792 v 1.48958 q 2.84375,-2.84375 6.770833,-2.84375 1.980469,0 3.639323,0.67709 0.304688,0.11849 0.558594,0.35547 0.389323,0.40625 0.389323,0.96484 0,0.55859 -0.40625,0.96484 -0.389323,0.38933 -0.947917,0.38933 -0.321614,0 -0.592448,-0.13542 -1.201822,-0.50781 -2.640625,-0.50781 -2.809896,0 -4.790364,1.98047 -1.980469,1.98047 -1.980469,4.79036 v 8.125 q 0,0.5586 -0.40625,0.96485 -0.389323,0.38932 -0.947917,0.38932 -0.558594,0 -0.964844,-0.38932 -0.389323,-0.40625 -0.389323,-0.96485 z"
         style="font-size:34.66666794px"
         id="path6118" />
      <path
         d="m 63.447724,132.85604 q -0.372396,0.3724 -0.964844,0.3724 -0.592448,0 -0.964844,-0.38932 -0.118489,-0.10157 -0.220052,-0.32162 l -7.515625,-16.36849 q -0.101563,-0.23698 -0.101563,-0.52474 0,-0.55859 0.389323,-0.94792 0.40625,-0.40625 0.964844,-0.40625 0.558594,0 0.964844,0.38933 0.135417,0.13541 0.253906,0.35547 l 6.229167,13.60937 6.229167,-13.60937 q 0.118489,-0.22006 0.270833,-0.35547 0.389323,-0.38933 0.947917,-0.38933 0.558594,0 0.947917,0.40625 0.40625,0.38933 0.40625,0.94792 0,0.28776 -0.101563,0.52474 l -7.515625,16.36849 q -0.101563,0.22005 -0.220052,0.33854 z"
         style="font-size:34.66666794px"
         id="path6120" />
      <path
         d="m 78.394338,110.2076 q 0,0.69401 -0.507812,1.20183 -0.490886,0.49088 -1.184896,0.49088 -0.694011,0 -1.201823,-0.49088 -0.490886,-0.50782 -0.490886,-1.20183 0,-0.69401 0.490886,-1.18489 0.507812,-0.50781 1.201823,-0.50781 0.69401,0 1.184896,0.50781 0.507812,0.49088 0.507812,1.18489 z m -3.046875,5.41667 q 0,-0.55859 0.389323,-0.94792 0.40625,-0.40625 0.964844,-0.40625 0.558594,0 0.947916,0.40625 0.406251,0.38933 0.406251,0.94792 v 16.25 q 0,0.5586 -0.406251,0.96485 -0.389322,0.38932 -0.947916,0.38932 -0.558594,0 -0.964844,-0.38932 -0.389323,-0.40625 -0.389323,-0.96485 z"
         style="font-size:34.66666794px"
         id="path6122" />
      <path
         d="m 96.844859,128.59042 q 0.558594,0 0.947917,0.40625 0.40625,0.38932 0.40625,0.94791 0,0.5586 -0.423177,0.9987 -2.623698,2.28516 -6.178386,2.28516 -3.927083,0 -6.703125,-2.77604 -2.776042,-2.77605 -2.776042,-6.70313 0,-3.92708 2.776042,-6.70312 2.776042,-2.77605 6.703125,-2.77605 3.554688,0 6.178386,2.28516 0.473958,0.42318 0.473958,1.04948 0,0.55859 -0.40625,0.96484 -0.389323,0.38933 -0.947916,0.38933 -0.490886,0 -0.863282,-0.30469 -1.895833,-1.67578 -4.434896,-1.67578 -2.809896,0 -4.790364,1.98047 -1.980469,1.98047 -1.980469,4.79036 0,2.8099 1.980469,4.79037 1.980468,1.98046 4.790364,1.98046 2.539063,0 4.417969,-1.65885 0.355469,-0.27083 0.829427,-0.27083 z"
         style="font-size:34.66666794px"
         id="path6124" />
      <path
         d="m 117.20814,122.3951 q -0.3724,-1.94661 -1.86198,-3.43619 -1.98047,-1.98047 -4.79037,-1.98047 -2.80989,0 -4.79036,1.98047 -1.48959,1.48958 -1.86198,3.43619 z m -1.43881,6.22917 q 0.5586,0 0.94792,0.40625 0.40625,0.38932 0.40625,0.94792 0,0.55859 -0.38932,0.96484 -2.6237,2.28516 -6.17839,2.28516 -3.92708,0 -6.70312,-2.77604 -2.77605,-2.77605 -2.77605,-6.70313 0,-3.92708 2.77605,-6.70312 2.77604,-2.77605 6.70312,-2.77605 3.92709,0 6.70313,2.77605 2.77604,2.77604 2.77604,6.70312 0,0.5586 -0.40625,0.96485 -0.38932,0.38932 -0.94792,0.38932 h -14.77734 q 0.37239,1.94661 1.86198,3.4362 1.98047,1.98046 4.79036,1.98046 2.53906,0 4.36719,-1.60807 0.3724,-0.28776 0.84635,-0.28776 z"
         style="font-size:34.66666794px"
         id="path6126" />
      <path
         d="m 126.09487,123.74927 q -1.54036,-0.57552 -2.14974,-1.20182 -1.20182,-1.1849 -1.20182,-2.86068 0,-1.67578 1.25261,-2.92838 2.4375,-2.48829 6.36458,-2.48829 4.2487,0 7.27865,3.40235 0.27083,0.32161 0.2539,0.79557 0,0.55859 -0.40625,0.96484 -0.38932,0.38933 -0.94791,0.38933 -0.5586,0 -0.89714,-0.35547 -0.33854,-0.35547 -0.49089,-0.50781 -1.98046,-1.98047 -4.79036,-1.98047 -2.8099,0 -4.48568,1.76041 -0.40625,0.49089 -0.40625,1.16797 0.0508,0.79558 0.82943,1.08334 l 8.32812,2.75911 q 1.54037,0.57552 2.14974,1.20182 1.20183,1.1849 1.20183,2.86068 0,1.67578 -1.25261,2.92839 -2.4375,2.48828 -6.36458,2.48828 -4.26563,0 -7.27865,-3.40235 -0.2539,-0.35546 -0.2539,-0.79557 0,-0.55859 0.38932,-0.94792 0.40625,-0.40625 0.96484,-0.40625 0.5586,0 0.89714,0.35547 0.33854,0.35547 0.49088,0.50782 1.98047,1.98046 4.79037,1.98046 2.8099,0 4.48568,-1.76041 0.40625,-0.49089 0.40625,-1.16797 -0.0508,-0.79557 -0.82943,-1.08333 z"
         style="font-size:34.66666794px"
         id="path6128" />
    </g>
    <g
       aria-label="Web of Science"
       style="font-style:normal;font-variant:normal;font-weight:normal;font-stretch:normal;font-size:32px;line-height:1.25;font-family:Comfortaa;-inkscape-font-specification:Comfortaa;letter-spacing:0px;word-spacing:0px;fill:#ffffff;fill-opacity:1"
       id="text5952">
      <path
         d="m 494.19492,-30.11615 q 0.35937,-0.359375 0.875,-0.359375 0.51562,0 0.89062,0.359375 0.20313,0.21875 0.29688,0.46875 l 5.0625,18.25 5.0625,-18.25 q 0.0937,-0.25 0.3125,-0.46875 0.35937,-0.359375 0.875,-0.359375 0.51562,0 0.875,0.375 0.375,0.359375 0.375,0.875 0,0.265625 -0.0937,0.546875 l -6.125,22.1562501 q -0.125,0.390625 -0.39063,0.671875 -0.375,0.375 -0.89062,0.375 -0.51563,0 -0.875,-0.375 -0.28125,-0.28125 -0.39063,-0.65625 l -4.98437,-18.0000001 -4.96875,17.9843751 q -0.125,0.390625 -0.39063,0.671875 -0.375,0.375 -0.89062,0.375 -0.51563,0 -0.875,-0.375 -0.28125,-0.28125 -0.39063,-0.65625 L 481.41367,-28.67865 q -0.0937,-0.28125 -0.0937,-0.546875 0,-0.515625 0.35937,-0.875 0.375,-0.375 0.89063,-0.375 0.51562,0 0.89062,0.359375 0.20313,0.21875 0.29688,0.46875 l 5.0625,18.25 5.0625,-18.25 q 0.0625,-0.234375 0.3125,-0.46875 z"
         style=""
         id="path6037" />
      <path
         d="m 524.14804,-15.475525 q -0.34375,-1.796875 -1.71875,-3.171875 -1.82812,-1.828125 -4.42187,-1.828125 -2.59375,0 -4.42188,1.828125 -1.375,1.375 -1.71875,3.171875 z m -1.32812,5.7500001 q 0.51562,0 0.875,0.375 0.375,0.359375 0.375,0.875 0,0.515625 -0.35938,0.890625 -2.42187,2.109375 -5.70312,2.109375 -3.625,0 -6.1875,-2.5625 -2.5625,-2.5625001 -2.5625,-6.1875001 0,-3.625 2.5625,-6.1875 2.5625,-2.5625 6.1875,-2.5625 3.625,0 6.1875,2.5625 2.5625,2.5625 2.5625,6.1875 0,0.515625 -0.375,0.890625 -0.35938,0.359375 -0.875,0.359375 h -13.64063 q 0.34375,1.796875 1.71875,3.1718751 1.82813,1.828125 4.42188,1.828125 2.34375,0 4.03125,-1.484375 0.34375,-0.265625 0.78125,-0.265625 z"
         style=""
         id="path6039" />
      <path
         d="m 538.00742,-7.9755249 q 2.59375,0 4.42187,-1.828125 1.82813,-1.8281251 1.82813,-4.4218751 0,-2.59375 -1.82813,-4.421875 -1.82812,-1.828125 -4.42187,-1.828125 -2.59375,0 -4.42188,1.828125 -1.82812,1.828125 -1.82812,4.421875 0,2.59375 1.82812,4.4218751 1.82813,1.828125 4.42188,1.828125 z m -6.25,-12.3750001 q 0.0312,-0.03125 0.0625,-0.0625 2.5625,-2.5625 6.1875,-2.5625 3.625,0 6.1875,2.5625 2.5625,2.5625 2.5625,6.1875 0,3.625 -2.5625,6.1875001 -2.5625,2.5625 -6.1875,2.5625 -3.625,0 -6.1875,-2.5625 -2.5625,-2.5625001 -2.5625,-6.1875001 v -15.03125 q 0,-0.515625 0.35937,-0.875 0.375,-0.375 0.89063,-0.375 0.51562,0 0.875,0.375 0.375,0.359375 0.375,0.875 z"
         style=""
         id="path6041" />
      <path
         d="m 576.13242,-14.225525 q 0,3.625 -2.5625,6.1875001 -2.5625,2.5625 -6.1875,2.5625 -3.625,0 -6.1875,-2.5625 -2.5625,-2.5625001 -2.5625,-6.1875001 0,-3.625 2.5625,-6.1875 2.5625,-2.5625 6.1875,-2.5625 3.625,0 6.1875,2.5625 2.5625,2.5625 2.5625,6.1875 z m -8.75,-6.25 q -2.59375,0 -4.42188,1.828125 -1.82812,1.828125 -1.82812,4.421875 0,2.59375 1.82812,4.4218751 1.82813,1.828125 4.42188,1.828125 2.59375,0 4.42187,-1.828125 1.82813,-1.8281251 1.82813,-4.4218751 0,-2.59375 -1.82813,-4.421875 -1.82812,-1.828125 -4.42187,-1.828125 z"
         style=""
         id="path6043" />
      <path
         d="m 587.75742,-30.475525 q 0.51562,0 0.875,0.375 0.375,0.359375 0.375,0.875 0,0.515625 -0.375,0.890625 -0.35938,0.359375 -0.875,0.359375 -5,0 -5,5 v 0.9375 h 3.76562 q 0.51563,0 0.875,0.375 0.375,0.359375 0.375,0.875 0,0.515625 -0.375,0.890625 -0.35937,0.359375 -0.875,0.359375 h -3.76562 v 12.8125001 q 0,0.515625 -0.375,0.890625 -0.35938,0.359375 -0.875,0.359375 -0.51563,0 -0.89063,-0.359375 -0.35937,-0.375 -0.35937,-0.890625 V -19.538025 h -1.25 q -0.51563,0 -0.89063,-0.359375 -0.35937,-0.375 -0.35937,-0.890625 0,-0.515625 0.35937,-0.875 0.375,-0.375 0.89063,-0.375 h 1.25 v -0.9375 q 0,-7.5 7.5,-7.5 z"
         style=""
         id="path6045" />
      <path
         d="m 599.88242,-8.8973999 q -0.25,-0.328125 -0.25,-0.75 0,-0.5156251 0.35937,-0.8750001 0.375,-0.375 0.89063,-0.375 0.67187,0 1.0625,0.578125 0.1875,0.296875 0.4375,0.5625001 1.32812,1.59375 3.40625,1.765625 2.0625,0.15625 3.64062,-1.171875 1.57813,-1.3437501 1.75,-3.4062501 0.17188,-2.078125 -1.17187,-3.640625 -1.32813,-1.578125 -3.40625,-1.75 -2.57813,-0.21875 -4.25,-2.1875 -1.67188,-1.96875 -1.46875,-4.5625 0.21875,-2.578125 2.1875,-4.25 1.76562,-1.515625 4.0625,-1.515625 2.71875,0 4.75,2.234375 0.34375,0.40625 0.60937,0.84375 0.1875,0.296875 0.1875,0.671875 0,0.515625 -0.375,0.890625 -0.35937,0.359375 -0.875,0.359375 -0.59375,0 -0.875,-0.375 -0.28125,-0.375 -0.57812,-0.765625 -1.01563,-1.1875 -2.54688,-1.3125 -1.54687,-0.125 -2.73437,0.890625 -1.1875,1 -1.3125,2.53125 -0.125,1.546875 0.875,2.734375 1.01562,1.1875 2.54687,1.3125 3.10938,0.265625 5.125,2.625 1.76563,2.09375 1.76563,4.75 0,0.359375 -0.0312,0.71875 -0.25,3.0937501 -2.60938,5.0937501 -2.10937,1.796875 -4.79687,1.796875 -3.35938,0 -5.78125,-2.65625 -0.32813,-0.359375 -0.59375,-0.765625 z"
         style=""
         id="path6047" />
      <path
         d="m 629.78867,-9.7567749 q 0.51562,0 0.875,0.375 0.375,0.359375 0.375,0.875 0,0.515625 -0.39063,0.921875 -2.42187,2.109375 -5.70312,2.109375 -3.625,0 -6.1875,-2.5625 -2.5625,-2.5625001 -2.5625,-6.1875001 0,-3.625 2.5625,-6.1875 2.5625,-2.5625 6.1875,-2.5625 3.28125,0 5.70312,2.109375 0.4375,0.390625 0.4375,0.96875 0,0.515625 -0.375,0.890625 -0.35937,0.359375 -0.875,0.359375 -0.45312,0 -0.79687,-0.28125 -1.75,-1.546875 -4.09375,-1.546875 -2.59375,0 -4.42188,1.828125 -1.82812,1.828125 -1.82812,4.421875 0,2.59375 1.82812,4.4218751 1.82813,1.828125 4.42188,1.828125 2.34375,0 4.07812,-1.53125 0.32813,-0.25 0.76563,-0.25 z"
         style=""
         id="path6049" />
      <path
         d="m 637.75742,-26.725525 q 0,0.640625 -0.46875,1.109375 -0.45313,0.453125 -1.09375,0.453125 -0.64063,0 -1.10938,-0.453125 -0.45312,-0.46875 -0.45312,-1.109375 0,-0.640625 0.45312,-1.09375 0.46875,-0.46875 1.10938,-0.46875 0.64062,0 1.09375,0.46875 0.46875,0.453125 0.46875,1.09375 z m -2.8125,5 q 0,-0.515625 0.35937,-0.875 0.375,-0.375 0.89063,-0.375 0.51562,0 0.875,0.375 0.375,0.359375 0.375,0.875 v 15.0000001 q 0,0.515625 -0.375,0.890625 -0.35938,0.359375 -0.875,0.359375 -0.51563,0 -0.89063,-0.359375 -0.35937,-0.375 -0.35937,-0.890625 z"
         style=""
         id="path6051" />
      <path
         d="m 656.08554,-15.475525 q -0.34375,-1.796875 -1.71875,-3.171875 -1.82812,-1.828125 -4.42187,-1.828125 -2.59375,0 -4.42188,1.828125 -1.375,1.375 -1.71875,3.171875 z m -1.32812,5.7500001 q 0.51562,0 0.875,0.375 0.375,0.359375 0.375,0.875 0,0.515625 -0.35938,0.890625 -2.42187,2.109375 -5.70312,2.109375 -3.625,0 -6.1875,-2.5625 -2.5625,-2.5625001 -2.5625,-6.1875001 0,-3.625 2.5625,-6.1875 2.5625,-2.5625 6.1875,-2.5625 3.625,0 6.1875,2.5625 2.5625,2.5625 2.5625,6.1875 0,0.515625 -0.375,0.890625 -0.35938,0.359375 -0.875,0.359375 h -13.64063 q 0.34375,1.796875 1.71875,3.1718751 1.82813,1.828125 4.42188,1.828125 2.34375,0 4.03125,-1.484375 0.34375,-0.265625 0.78125,-0.265625 z"
         style=""
         id="path6053" />
      <path
         d="m 661.19492,-21.725525 q 0,-0.515625 0.35937,-0.875 0.375,-0.375 0.89063,-0.375 0.51562,0 0.875,0.375 0.375,0.359375 0.375,0.875 v 1.015625 q 2.34375,-2.265625 5.625,-2.265625 3.35937,0 5.73437,2.390625 2.39063,2.375 2.39063,5.734375 v 8.1250001 q 0,0.515625 -0.375,0.890625 -0.35938,0.359375 -0.875,0.359375 -0.51563,0 -0.89063,-0.359375 -0.35937,-0.375 -0.35937,-0.890625 v -8.1250001 q 0,-2.328125 -1.65625,-3.96875 -1.64063,-1.65625 -3.96875,-1.65625 -2.32813,0 -3.98438,1.65625 -1.64062,1.640625 -1.64062,3.96875 v 8.1250001 q 0,0.515625 -0.375,0.890625 -0.35938,0.359375 -0.875,0.359375 -0.51563,0 -0.89063,-0.359375 -0.35937,-0.375 -0.35937,-0.890625 z"
         style=""
         id="path6055" />
      <path
         d="m 693.53867,-9.7567749 q 0.51562,0 0.875,0.375 0.375,0.359375 0.375,0.875 0,0.515625 -0.39063,0.921875 -2.42187,2.109375 -5.70312,2.109375 -3.625,0 -6.1875,-2.5625 -2.5625,-2.5625001 -2.5625,-6.1875001 0,-3.625 2.5625,-6.1875 2.5625,-2.5625 6.1875,-2.5625 3.28125,0 5.70312,2.109375 0.4375,0.390625 0.4375,0.96875 0,0.515625 -0.375,0.890625 -0.35937,0.359375 -0.875,0.359375 -0.45312,0 -0.79687,-0.28125 -1.75,-1.546875 -4.09375,-1.546875 -2.59375,0 -4.42188,1.828125 -1.82812,1.828125 -1.82812,4.421875 0,2.59375 1.82812,4.4218751 1.82813,1.828125 4.42188,1.828125 2.34375,0 4.07812,-1.53125 0.32813,-0.25 0.76563,-0.25 z"
         style=""
         id="path6057" />
      <path
         d="m 712.33554,-15.475525 q -0.34375,-1.796875 -1.71875,-3.171875 -1.82812,-1.828125 -4.42187,-1.828125 -2.59375,0 -4.42188,1.828125 -1.375,1.375 -1.71875,3.171875 z m -1.32812,5.7500001 q 0.51562,0 0.875,0.375 0.375,0.359375 0.375,0.875 0,0.515625 -0.35938,0.890625 -2.42187,2.109375 -5.70312,2.109375 -3.625,0 -6.1875,-2.5625 -2.5625,-2.5625001 -2.5625,-6.1875001 0,-3.625 2.5625,-6.1875 2.5625,-2.5625 6.1875,-2.5625 3.625,0 6.1875,2.5625 2.5625,2.5625 2.5625,6.1875 0,0.515625 -0.375,0.890625 -0.35938,0.359375 -0.875,0.359375 h -13.64063 q 0.34375,1.796875 1.71875,3.1718751 1.82813,1.828125 4.42188,1.828125 2.34375,0 4.03125,-1.484375 0.34375,-0.265625 0.78125,-0.265625 z"
         style=""
         id="path6059" />
    </g>
    <g
       aria-label="Scopus"
       style="font-style:normal;font-variant:normal;font-weight:normal;font-stretch:normal;font-size:32px;line-height:1.25;font-family:Comfortaa;-inkscape-font-specification:Comfortaa;letter-spacing:0px;word-spacing:0px;fill:#ffffff;fill-opacity:1"
       id="text5956">
      <path
         d="m 486.81467,104.73898 q -0.25,-0.32813 -0.25,-0.75 0,-0.51563 0.35937,-0.875 0.375,-0.375 0.89063,-0.375 0.67187,0 1.0625,0.57812 0.1875,0.29688 0.4375,0.5625 1.32812,1.59375 3.40625,1.76563 2.0625,0.15625 3.64062,-1.17188 1.57813,-1.34375 1.75,-3.40625 0.17188,-2.078124 -1.17187,-3.640624 -1.32813,-1.578125 -3.40625,-1.75 -2.57813,-0.21875 -4.25,-2.1875 -1.67188,-1.96875 -1.46875,-4.5625 0.21875,-2.578125 2.1875,-4.25 1.76562,-1.515625 4.0625,-1.515625 2.71875,0 4.75,2.234375 0.34375,0.40625 0.60937,0.84375 0.1875,0.296875 0.1875,0.671875 0,0.515625 -0.375,0.890625 -0.35937,0.359375 -0.875,0.359375 -0.59375,0 -0.875,-0.375 -0.28125,-0.375 -0.57812,-0.765625 -1.01563,-1.1875 -2.54688,-1.3125 -1.54687,-0.125 -2.73437,0.890625 -1.1875,1 -1.3125,2.53125 -0.125,1.546875 0.875,2.734375 1.01562,1.1875 2.54687,1.3125 3.10938,0.265625 5.125,2.625 1.76563,2.09375 1.76563,4.750004 0,0.35937 -0.0312,0.71875 -0.25,3.09375 -2.60938,5.09375 -2.10937,1.79687 -4.79687,1.79687 -3.35938,0 -5.78125,-2.65625 -0.32813,-0.35937 -0.59375,-0.76562 z"
         style=""
         id="path6024" />
      <path
         d="m 516.72092,103.8796 q 0.51562,0 0.875,0.375 0.375,0.35938 0.375,0.875 0,0.51563 -0.39063,0.92188 -2.42187,2.10937 -5.70312,2.10937 -3.625,0 -6.1875,-2.5625 -2.5625,-2.5625 -2.5625,-6.187499 0,-3.625 2.5625,-6.1875 2.5625,-2.5625 6.1875,-2.5625 3.28125,0 5.70312,2.109375 0.4375,0.390625 0.4375,0.96875 0,0.515625 -0.375,0.890625 -0.35937,0.359375 -0.875,0.359375 -0.45312,0 -0.79687,-0.28125 -1.75,-1.546875 -4.09375,-1.546875 -2.59375,0 -4.42188,1.828125 -1.82812,1.828125 -1.82812,4.421875 0,2.593749 1.82812,4.421879 1.82813,1.82812 4.42188,1.82812 2.34375,0 4.07812,-1.53125 0.32813,-0.25 0.76563,-0.25 z"
         style=""
         id="path6026" />
      <path
         d="m 538.12717,99.410851 q 0,3.624999 -2.5625,6.187499 -2.5625,2.5625 -6.1875,2.5625 -3.625,0 -6.1875,-2.5625 -2.5625,-2.5625 -2.5625,-6.187499 0,-3.625 2.5625,-6.1875 2.5625,-2.5625 6.1875,-2.5625 3.625,0 6.1875,2.5625 2.5625,2.5625 2.5625,6.1875 z m -8.75,-6.25 q -2.59375,0 -4.42188,1.828125 -1.82812,1.828125 -1.82812,4.421875 0,2.593749 1.82812,4.421879 1.82813,1.82812 4.42188,1.82812 2.59375,0 4.42187,-1.82812 1.82813,-1.82813 1.82813,-4.421879 0,-2.59375 -1.82813,-4.421875 -1.82812,-1.828125 -4.42187,-1.828125 z"
         style=""
         id="path6028" />
      <path
         d="m 543.12717,99.410851 q 0,2.593749 1.82812,4.421879 1.82813,1.82812 4.42188,1.82812 2.59375,0 4.42187,-1.82812 1.82813,-1.82813 1.82813,-4.421879 0,-2.59375 -1.82813,-4.421875 -1.82812,-1.828125 -4.42187,-1.828125 -2.59375,0 -4.42188,1.828125 -1.82812,1.828125 -1.82812,4.421875 z m 0,14.999999 q 0,0.51563 -0.375,0.875 -0.35938,0.375 -0.875,0.375 -0.51563,0 -0.89063,-0.375 -0.35937,-0.35937 -0.35937,-0.875 V 99.410851 q 0,-3.625 2.5625,-6.1875 2.5625,-2.5625 6.1875,-2.5625 3.625,0 6.1875,2.5625 2.5625,2.5625 2.5625,6.1875 0,3.624999 -2.5625,6.187499 -2.5625,2.5625 -6.1875,2.5625 -3.625,0 -6.1875,-2.5625 -0.0312,-0.0312 -0.0625,-0.0625 z"
         style=""
         id="path6030" />
      <path
         d="m 576.87717,106.91085 q 0,0.51563 -0.375,0.89063 -0.35938,0.35937 -0.875,0.35937 -0.51563,0 -0.89063,-0.35937 -0.35937,-0.375 -0.35937,-0.89063 v -1.01562 q -2.34375,2.26562 -5.625,2.26562 -3.35938,0 -5.75,-2.375 -2.375,-2.39062 -2.375,-5.75 v -8.124999 q 0,-0.515625 0.35937,-0.875 0.375,-0.375 0.89063,-0.375 0.51562,0 0.875,0.375 0.375,0.359375 0.375,0.875 v 8.124999 q 0,2.32813 1.64062,3.98438 1.65625,1.64062 3.98438,1.64062 2.32812,0 3.96875,-1.64062 1.65625,-1.65625 1.65625,-3.98438 v -8.124999 q 0,-0.515625 0.35937,-0.875 0.375,-0.375 0.89063,-0.375 0.51562,0 0.875,0.375 0.375,0.359375 0.375,0.875 z"
         style=""
         id="path6032" />
      <path
         d="m 582.47092,99.410851 q -1.42188,-0.53125 -1.98438,-1.109375 -1.10937,-1.09375 -1.10937,-2.640625 0,-1.546875 1.15625,-2.703125 2.25,-2.296875 5.875,-2.296875 3.92187,0 6.71875,3.140625 0.25,0.296875 0.23437,0.734375 0,0.515625 -0.375,0.890625 -0.35937,0.359375 -0.875,0.359375 -0.51562,0 -0.82812,-0.328125 -0.3125,-0.328125 -0.45313,-0.46875 -1.82812,-1.828125 -4.42187,-1.828125 -2.59375,0 -4.14063,1.625 -0.375,0.453125 -0.375,1.078125 0.0469,0.734375 0.76563,1 l 7.6875,2.546875 q 1.42187,0.53125 1.98437,1.109379 1.10938,1.09375 1.10938,2.64062 0,1.54688 -1.15625,2.70313 -2.25,2.29687 -5.875,2.29687 -3.9375,0 -6.71875,-3.14062 -0.23438,-0.32813 -0.23438,-0.73438 0,-0.51562 0.35938,-0.875 0.375,-0.375 0.89062,-0.375 0.51563,0 0.82813,0.32813 0.3125,0.32812 0.45312,0.46875 1.82813,1.82812 4.42188,1.82812 2.59375,0 4.14062,-1.625 0.375,-0.45312 0.375,-1.07812 -0.0469,-0.73438 -0.76562,-1 z"
         style=""
         id="path6034" />
    </g>
  </g>
</svg>
